<?xml version="1.0" encoding="utf-8"?>
<!-- Generator: Adobe Illustrator 21.1.0, SVG Export Plug-In . SVG Version: 6.00 Build 0)  -->
<svg version="1.1" id="Layer_1" xmlns="http://www.w3.org/2000/svg" xmlns:xlink="http://www.w3.org/1999/xlink" x="0px" y="0px"
	 viewBox="0 0 24 24" enable-background="new 0 0 24 24" xml:space="preserve">
<g>
	<circle fill="#666666" cx="17.466" cy="15.966" r="5.563"/>
	<g>
		<path fill="#A9A9A9" d="M10.963,15.966c0-3.586,2.917-6.503,6.503-6.503c2.319,0,4.352,1.223,5.504,3.054V6.67
			c0-0.7-0.5-1.2-1.2-1.2h-9.2c-0.3,0-0.5-0.1-0.7-0.3l-2.9-2.4c-0.2-0.2-0.5-0.3-0.7-0.3h-6.1c-0.7,0-1.2,0.5-1.2,1.2v14.8
			c0,0.6,0.4,1,1,1h10.026C11.345,18.458,10.963,17.257,10.963,15.966z"/>
		<path fill="#FFFFFF" d="M19.649,15.239h-1.455v-1.455c0-0.437-0.291-0.728-0.728-0.728s-0.728,0.291-0.728,0.728v1.455h-1.455
			c-0.437,0-0.728,0.291-0.728,0.728s0.291,0.728,0.728,0.728h1.455v1.455c0,0.437,0.291,0.728,0.728,0.728s0.728-0.291,0.728-0.728
			v-1.455h1.455c0.437,0,0.728-0.291,0.728-0.728C20.377,15.53,20.086,15.239,19.649,15.239z"/>
	</g>
</g>
</svg>
