<svg id="Layer_1" data-name="Layer 1" xmlns="http://www.w3.org/2000/svg" viewBox="0 0 32 32"><defs><style>.cls-1{fill:#b36601;}.cls-2{fill:#fff;}.cls-3{fill:#e3992e;}.cls-4{fill:#dd8100;}.cls-5{fill:#f05822;}</style></defs><title>folders</title><path class="cls-1" d="M0.5,18.5V2.177A1.673,1.673,0,0,1,2.167.5H8.309A1.779,1.779,0,0,1,9.4.891L12.253,3.3a0.711,0.711,0,0,0,.414.2h8.167A1.669,1.669,0,0,1,22.5,5.167V18.5H0.5Z"/><path class="cls-2" d="M8.309,1a1.274,1.274,0,0,1,.785.283l2.837,2.395A1.187,1.187,0,0,0,12.667,4h8.167A1.167,1.167,0,0,1,22,5.167V18H1V2.176A1.175,1.175,0,0,1,2.167,1H8.309m0-1H2.167A2.174,2.174,0,0,0,0,2.176V19H23V5.167A2.169,2.169,0,0,0,20.833,3H12.7a1.191,1.191,0,0,1-.15-0.106L9.739,0.519A2.3,2.3,0,0,0,8.309,0h0Z"/><path class="cls-3" d="M2,17H21V7a1,1,0,0,0-1-1H3A1,1,0,0,0,2,7V17Z"/><polygon class="cls-4" points="2 17 21 17 21 7 2 17"/><path class="cls-5" d="M19.591,31.433a0.5,0.5,0,0,1-.227-0.055,0.639,0.639,0,0,1-.245-0.711l4-11.667H19.416a0.437,0.437,0,0,1-.4-0.094,0.4,0.4,0,0,1-.084-0.385l3.233-11.4C22.228,6.907,22.424,7,22.649,7h6.642c0.171,0,.33-0.129.421,0.015a0.487,0.487,0,0,1,.032.473L26.253,15h4.331a0.428,0.428,0,0,1,.444.168,0.414,0.414,0,0,1-.035.467L20,31.245A0.476,0.476,0,0,1,19.591,31.433Z"/><path class="cls-2" d="M29.291,7L25.47,15h5.114L19.592,30.931,23.824,19H19.416L22.649,7H29m2,8h0M29.291,6H22.649a1.031,1.031,0,0,0-.964.766L18.452,18.422a1.355,1.355,0,0,0,.167,1.028,1.186,1.186,0,0,0,.8.55h3L18.647,30.753a0.912,0.912,0,0,0,.489,1.144,0.961,0.961,0,0,0,.455.073,1.018,1.018,0,0,0,.819-0.443l10.963-15.6a1.487,1.487,0,0,0,.213-0.769,1.14,1.14,0,0,0-1-1.153H27.037L30.2,7.34a0.923,0.923,0,0,0-.064-0.919A0.964,0.964,0,0,0,29.291,6h0Zm0,2.067h0Z"/></svg>