<svg id="Layer_1" data-name="Layer 1" xmlns="http://www.w3.org/2000/svg" viewBox="0 0 32 32"><defs><style>.cls-1{fill:#b36601;}.cls-2{fill:#fff;}.cls-3{fill:#e3992e;}.cls-4{fill:#dd8100;}.cls-5{fill:#c3e5f6;}.cls-6{fill:#414042;}.cls-7{fill:#8cc53e;}.cls-8{fill:#f05822;}</style></defs><title>folders</title><path class="cls-1" d="M0.5,18.5V2.177A1.673,1.673,0,0,1,2.167.5H8.309A1.779,1.779,0,0,1,9.4.891L12.253,3.3a0.711,0.711,0,0,0,.414.2h8.167A1.669,1.669,0,0,1,22.5,5.167V18.5H0.5Z"/><path class="cls-2" d="M8.309,1a1.274,1.274,0,0,1,.785.283l2.837,2.395A1.187,1.187,0,0,0,12.667,4h8.167A1.167,1.167,0,0,1,22,5.167V18H1V2.176A1.175,1.175,0,0,1,2.167,1H8.309m0-1H2.167A2.174,2.174,0,0,0,0,2.176V19H23V5.167A2.169,2.169,0,0,0,20.833,3H12.7a1.191,1.191,0,0,1-.15-0.106L9.739,0.519A2.3,2.3,0,0,0,8.309,0h0Z"/><path class="cls-3" d="M2,17H21V7a1,1,0,0,0-1-1H3A1,1,0,0,0,2,7V17Z"/><polygon class="cls-4" points="2 17 21 17 21 7 2 17"/><rect class="cls-2" x="8" y="8" width="24" height="24"/><rect class="cls-5" x="9.917" y="9.917" width="20.167" height="20.167"/><path class="cls-6" d="M14.855,18.4a3.115,3.115,0,1,1,3.114-3.115A3.119,3.119,0,0,1,14.855,18.4Zm0-4.71a1.6,1.6,0,1,0,1.595,1.595A1.6,1.6,0,0,0,14.855,13.694Z"/><polygon class="cls-7" points="25.5 18.644 10.208 30.083 30.542 30.417 30.542 25.625 25.5 18.644"/><path class="cls-6" d="M9,9V31H31V9H9Zm21,1V24l-4.184-6.227L10,29V10H30ZM10.5,30l15-11L30,25.5V30H10.5Z"/><circle class="cls-8" cx="14.854" cy="15.29" r="1.964"/></svg>