<svg id="Layer_1" data-name="Layer 1" xmlns="http://www.w3.org/2000/svg" viewBox="0 0 32 32"><defs><style>.cls-1{fill:#b36601;}.cls-2{fill:#fff;}.cls-3{fill:#e3992e;}.cls-4{fill:#dd8100;}.cls-5{fill:#227247;}.cls-6{fill:#004a70;}.cls-7{fill:#eeb111;}.cls-8{fill:#8cc53e;}.cls-9{fill:#00a4d8;}.cls-10{fill:#cd3632;}</style></defs><title>folders</title><path class="cls-1" d="M0.5,18.5V2.177A1.674,1.674,0,0,1,2.167.5H8.309A1.777,1.777,0,0,1,9.4.891L12.253,3.3a0.709,0.709,0,0,0,.414.2h8.166A1.669,1.669,0,0,1,22.5,5.167V18.5H0.5Z"/><path class="cls-2" d="M8.309,1a1.274,1.274,0,0,1,.785.283l2.837,2.395A1.187,1.187,0,0,0,12.667,4h8.167A1.167,1.167,0,0,1,22,5.167V18H1V2.176A1.175,1.175,0,0,1,2.167,1H8.309m0-1H2.167A2.174,2.174,0,0,0,0,2.176V19H23V5.167A2.169,2.169,0,0,0,20.833,3H12.7a1.192,1.192,0,0,1-.15-0.106L9.739,0.519A2.3,2.3,0,0,0,8.309,0h0Z"/><path class="cls-3" d="M2,17H21V7a1,1,0,0,0-1-1H3A1,1,0,0,0,2,7V17Z"/><polygon class="cls-4" points="2 17 21 17 21 7 2 17"/><rect class="cls-5" x="25.5" y="10.5" width="6" height="21" rx="1.5" ry="1.5"/><path class="cls-2" d="M30,11a1,1,0,0,1,1,1V30a1,1,0,0,1-1,1H27a1,1,0,0,1-1-1V12a1,1,0,0,1,1-1h3m0-1H27a2,2,0,0,0-2,2V30a2,2,0,0,0,2,2h3a2,2,0,0,0,2-2V12a2,2,0,0,0-2-2h0Z"/><rect class="cls-5" x="9.5" y="14.5" width="6" height="17" rx="1.5" ry="1.5"/><path class="cls-2" d="M14,15a1,1,0,0,1,1,1V30a1,1,0,0,1-1,1H11a1,1,0,0,1-1-1V16a1,1,0,0,1,1-1h3m0-1H11a2,2,0,0,0-2,2V30a2,2,0,0,0,2,2h3a2,2,0,0,0,2-2V16a2,2,0,0,0-2-2h0Z"/><rect class="cls-6" x="18.5" y="13.5" width="7" height="18" rx="1.5" ry="1.5"/><path class="cls-2" d="M24,14a1,1,0,0,1,1,1V30a1,1,0,0,1-1,1H20a1,1,0,0,1-1-1V15a1,1,0,0,1,1-1h4m0-1H20a2,2,0,0,0-2,2V30a2,2,0,0,0,2,2h4a2,2,0,0,0,2-2V15a2,2,0,0,0-2-2h0Z"/><rect class="cls-7" x="15.5" y="8.444" width="3" height="23.056" rx="1" ry="1"/><path class="cls-2" d="M17.5,8.944a0.5,0.5,0,0,1,.5.5V30.5a0.5,0.5,0,0,1-.5.5h-1a0.5,0.5,0,0,1-.5-0.5V9.444a0.5,0.5,0,0,1,.5-0.5h1m0-1h-1a1.5,1.5,0,0,0-1.5,1.5V30.5A1.5,1.5,0,0,0,16.5,32h1A1.5,1.5,0,0,0,19,30.5V9.444a1.5,1.5,0,0,0-1.5-1.5h0Z"/><rect class="cls-7" x="19" y="28" width="6" height="1"/><rect class="cls-7" x="19" y="16" width="6" height="1"/><rect class="cls-8" x="26" y="27" width="5" height="1"/><rect class="cls-8" x="26" y="14" width="5" height="1"/><rect class="cls-8" x="11" y="17" width="3" height="12"/><rect class="cls-9" x="20" y="18" width="4" height="9"/><rect class="cls-10" x="16" y="28" width="2" height="1"/><rect class="cls-10" x="16" y="11" width="2" height="1"/></svg>