<svg id="Layer_1" data-name="Layer 1" xmlns="http://www.w3.org/2000/svg" viewBox="0 0 32 32"><defs><style>.cls-1{fill:#b36601;}.cls-2{fill:#fff;}.cls-3{fill:#e3992e;}.cls-4{fill:#dd8100;}.cls-5{fill:#41535b;}.cls-6{fill:#c2e4f4;}.cls-7{fill:#96cfed;}</style></defs><title>folders</title><path class="cls-1" d="M0.5,18.5V2.176A1.673,1.673,0,0,1,2.167.5H8.309A1.778,1.778,0,0,1,9.4.891L12.253,3.3a0.705,0.705,0,0,0,.413.2h8.167A1.668,1.668,0,0,1,22.5,5.167V18.5H0.5Z"/><path class="cls-2" d="M8.309,1a1.274,1.274,0,0,1,.785.283l2.837,2.395A1.187,1.187,0,0,0,12.667,4h8.167A1.167,1.167,0,0,1,22,5.167V18H1V2.176A1.175,1.175,0,0,1,2.167,1H8.309m0-1H2.167A2.174,2.174,0,0,0,0,2.176V19H23V5.167A2.169,2.169,0,0,0,20.833,3H12.7a1.193,1.193,0,0,1-.15-0.106L9.739,0.519A2.3,2.3,0,0,0,8.309,0h0Z"/><path class="cls-3" d="M2,17H21V7a1,1,0,0,0-1-1H3A1,1,0,0,0,2,7V17Z"/><polygon class="cls-4" points="2 17 21 17 21 7 2 17"/><path class="cls-5" d="M18.4,31.5a1.89,1.89,0,0,1-1.9-1.875V10.375A1.89,1.89,0,0,1,18.4,8.5H29.6a1.89,1.89,0,0,1,1.9,1.875v19.25A1.89,1.89,0,0,1,29.6,31.5H18.4Z"/><path class="cls-2" d="M29.6,9A1.388,1.388,0,0,1,31,10.375v19.25A1.388,1.388,0,0,1,29.6,31H18.4A1.388,1.388,0,0,1,17,29.625V10.375A1.388,1.388,0,0,1,18.4,9H29.6m0-1H18.4A2.39,2.39,0,0,0,16,10.375v19.25A2.39,2.39,0,0,0,18.4,32H29.6A2.39,2.39,0,0,0,32,29.625V10.375A2.39,2.39,0,0,0,29.6,8h0Z"/><rect class="cls-5" x="18" y="11" width="12" height="17"/><path class="cls-2" d="M24.233,30H23.767a0.626,0.626,0,0,1-.7-0.5h0a0.626,0.626,0,0,1,.7-0.5h0.467a0.626,0.626,0,0,1,.7.5h0A0.626,0.626,0,0,1,24.233,30Z"/><rect class="cls-6" x="18" y="11" width="12" height="17"/><polygon class="cls-7" points="18 28 18 11 30 11 18 28"/></svg>