<svg id="Layer_1" data-name="Layer 1" xmlns="http://www.w3.org/2000/svg" viewBox="0 0 32 32"><defs><style>.cls-1{fill:#b36601;}.cls-2{fill:#fff;}.cls-3{fill:#e3992e;}.cls-4{fill:#dd8100;}.cls-5{fill:#333;}</style></defs><title>folders</title><path class="cls-1" d="M0.5,18.5V2.177A1.674,1.674,0,0,1,2.167.5H8.309A1.777,1.777,0,0,1,9.4.891L12.253,3.3a0.709,0.709,0,0,0,.414.2h8.166A1.669,1.669,0,0,1,22.5,5.167V18.5H0.5Z"/><path class="cls-2" d="M8.309,1a1.274,1.274,0,0,1,.785.283l2.837,2.395A1.187,1.187,0,0,0,12.667,4h8.167A1.167,1.167,0,0,1,22,5.167V18H1V2.176A1.175,1.175,0,0,1,2.167,1H8.309m0-1H2.167A2.174,2.174,0,0,0,0,2.176V19H23V5.167A2.169,2.169,0,0,0,20.833,3H12.7a1.2,1.2,0,0,1-.15-0.106L9.739,0.519A2.3,2.3,0,0,0,8.309,0h0Z"/><path class="cls-3" d="M2,17H21V7a1,1,0,0,0-1-1H3A1,1,0,0,0,2,7V17Z"/><polygon class="cls-4" points="2 17 21 17 21 7 2 17"/><path class="cls-2" d="M11,21l-1-1V12.048A2.053,2.053,0,0,1,12.051,10,1.927,1.927,0,0,1,14,12v2a12.112,12.112,0,0,1,8.28-3.9c2.857,0,5.716,1.349,8.268,3.9a2.05,2.05,0,1,1-2.9,2.9,7.779,7.779,0,0,0-5.384-2.679c-1.742,0-3.518,1.057-5.264,2.772h2a2,2,0,0,1,0,4H11Z"/><path class="cls-5" d="M19,20a1.072,1.072,0,0,0,1.2-1A1.043,1.043,0,0,0,19,18H14.7l1.613-1.69c4.932-4.932,9.209-2.722,11.933,0a1.205,1.205,0,0,0,1.7-1.7c-4.873-4.873-10.469-4.873-15.341,0L13,16.3V12a1.017,1.017,0,1,0-2,0v8h8Z"/><path class="cls-2" d="M30.994,21L32,22v7.952A2.053,2.053,0,0,1,29.949,32,1.927,1.927,0,0,1,28,30V28c-3,2.495-5.459,3.9-8.283,3.9-2.857,0-5.717-1.349-8.27-3.9a2.05,2.05,0,1,1,2.9-2.9,7.779,7.779,0,0,0,5.384,2.679c1.742,0,3.518-1.057,5.264-2.772h-2a2,2,0,1,1,0-4h8Z"/><path class="cls-5" d="M22.994,22a1.072,1.072,0,0,0-1.2,1,1.043,1.043,0,0,0,1.2,1h4.3l-1.613,1.69c-4.932,4.932-9.209,2.722-11.933,0a1.205,1.205,0,0,0-1.7,1.7c4.873,4.873,10.471,4.873,15.344,0L29,25.7V30a1.017,1.017,0,1,0,2,0V22H22.994Z"/></svg>