<svg id="Layer_1" data-name="Layer 1" xmlns="http://www.w3.org/2000/svg" viewBox="0 0 32 32"><defs><style>.cls-1{fill:#b36601;}.cls-2{fill:#fff;}.cls-3{fill:#e3992e;}.cls-4{fill:#dd8100;}.cls-5,.cls-6{fill:#473d2a;}.cls-5{stroke:#fff;stroke-miterlimit:10;}.cls-7{fill:#dfe7ea;}.cls-8{fill:#275899;}.cls-9{fill:#00a4d8;}.cls-10{fill:#8cc53e;}</style></defs><title>folders</title><path class="cls-1" d="M0.5,18.5V2.176A1.673,1.673,0,0,1,2.167.5H8.309A1.778,1.778,0,0,1,9.4.891L12.253,3.3a0.705,0.705,0,0,0,.413.2h8.167A1.669,1.669,0,0,1,22.5,5.167V18.5H0.5Z"/><path class="cls-2" d="M8.309,1a1.274,1.274,0,0,1,.785.283l2.837,2.395A1.187,1.187,0,0,0,12.667,4h8.167A1.167,1.167,0,0,1,22,5.167V18H1V2.176A1.175,1.175,0,0,1,2.167,1H8.309m0-1H2.167A2.174,2.174,0,0,0,0,2.176V19H23V5.167A2.169,2.169,0,0,0,20.833,3H12.7a1.194,1.194,0,0,1-.15-0.106L9.739,0.519A2.3,2.3,0,0,0,8.309,0h0Z"/><path class="cls-3" d="M2,17H21V7a1,1,0,0,0-1-1H3A1,1,0,0,0,2,7V17Z"/><polygon class="cls-4" points="2 17 21 17 21 7 2 17"/><g id="Layer_1-2" data-name="Layer 1"><path class="cls-5" d="M11.808,29.75h0v0Z"/><path class="cls-6" d="M13.5,31.625c-1.131,0-1.5-.5-1.5-1.625V29.925h0V10.65c0-1.05.373-2.275,1.5-2.275H30.385C31.031,8.375,31,8.4,31,9V30c0,0.6.031,1.625-.615,1.625H13.5Z"/><rect class="cls-2" x="14.019" y="27" width="15.981" height="3"/><rect class="cls-7" x="14.019" y="26.354" width="15.981" height="2.646"/><path class="cls-8" d="M31,10a1.133,1.133,0,0,0-1-1H13c-0.969,0-1,.1-1,1V29.5c0-.75.6-1.518,2-1.5H30a1.133,1.133,0,0,0,1-1V10Z"/><rect class="cls-9" x="14" y="9" width="0.808" height="19"/><polygon class="cls-10" points="29 9 29 16 26.5 14 24 16 24 9 29 9"/></g><path class="cls-2" d="M29.25,9A1.739,1.739,0,0,1,31,10.5v19A1.5,1.5,0,0,1,29.5,31h-16A1.5,1.5,0,0,1,12,29.5v-19A1.5,1.5,0,0,1,13.5,9H29m0.5-1h-16A2.5,2.5,0,0,0,11,10.5v19A2.5,2.5,0,0,0,13.5,32h16A2.5,2.5,0,0,0,32,29.5v-19A2.5,2.5,0,0,0,29.5,8h0Z"/></svg>