<svg id="Layer_1" data-name="Layer 1" xmlns="http://www.w3.org/2000/svg" viewBox="0 0 32 32"><defs><style>.cls-1{fill:#b36601;}.cls-2{fill:#fff;}.cls-3{fill:#e3992e;}.cls-4{fill:#dd8100;}.cls-5{fill:#dfe7ea;}.cls-6{fill:#49616b;stroke:#49616b;stroke-miterlimit:10;stroke-width:0.5px;}.cls-7{fill:#7b9ab0;}.cls-8{fill:#8b5e3c;}.cls-9{fill:#414042;}.cls-10{fill:#ffffc8;}</style></defs><title>folders</title><path class="cls-1" d="M0.5,18.5V2.176A1.674,1.674,0,0,1,2.167.5H8.309A1.777,1.777,0,0,1,9.4.891L12.253,3.3a0.706,0.706,0,0,0,.414.2h8.166A1.669,1.669,0,0,1,22.5,5.167V18.5H0.5Z"/><path class="cls-2" d="M8.309,1a1.274,1.274,0,0,1,.785.283l2.837,2.395A1.187,1.187,0,0,0,12.667,4h8.167A1.167,1.167,0,0,1,22,5.167V18H1V2.176A1.175,1.175,0,0,1,2.167,1H8.309m0-1H2.167A2.174,2.174,0,0,0,0,2.176V19H23V5.167A2.169,2.169,0,0,0,20.833,3H12.7a1.194,1.194,0,0,1-.15-0.106L9.739,0.519A2.3,2.3,0,0,0,8.309,0h0Z"/><path class="cls-3" d="M2,17H21V7a1,1,0,0,0-1-1H3A1,1,0,0,0,2,7V17Z"/><polygon class="cls-4" points="2 17 21 17 21 7 2 17"/><g id="Layer_1-2" data-name="Layer 1"><path class="cls-5" d="M12.762,20.97L15.751,9.38a1.924,1.924,0,0,1,2.386-1.408l8.029,2.07,2.487,4.214L26.038,24.393Z"/><path class="cls-6" d="M25.957,10.326L28.3,14.3,25.8,24,13.16,20.735,16.067,9.462a1.616,1.616,0,0,1,1.988-1.173l7.9,2.038m0.416-.567L26.12,9.694l-7.9-2.038A2.313,2.313,0,0,0,15.434,9.3L12.528,20.572l-0.163.632L13,21.367l12.644,3.26,0.632,0.163,0.163-.632,2.5-9.693L29,14.212l-0.141-.239L26.513,10l-0.141-.239h0Z"/><polygon class="cls-7" points="25.792 10.538 25.006 13.586 28.054 14.372 25.792 10.538"/><rect class="cls-8" x="9.5" y="19.5" width="21" height="11" rx="1.5" ry="1.5"/><path class="cls-9" d="M29,20a1,1,0,0,1,1,1v8a1,1,0,0,1-1,1H11a1,1,0,0,1-1-1V21a1,1,0,0,1,1-1H29m0-1H11a2,2,0,0,0-2,2v8a2,2,0,0,0,2,2H29a2,2,0,0,0,2-2V21a2,2,0,0,0-2-2h0Z"/></g><path class="cls-10" d="M20.187,21.257l1.089,2.207a0.209,0.209,0,0,0,.157.114l2.435,0.354a0.208,0.208,0,0,1,.115.355l-1.763,1.718a0.209,0.209,0,0,0-.06.185l0.416,2.425a0.208,0.208,0,0,1-.3.22L20.1,27.69a0.207,0.207,0,0,0-.194,0l-2.179,1.145a0.208,0.208,0,0,1-.3-0.22l0.416-2.425a0.209,0.209,0,0,0-.06-0.185l-1.763-1.718a0.208,0.208,0,0,1,.116-0.355l2.436-.354a0.209,0.209,0,0,0,.157-0.114l1.089-2.207a0.208,0.208,0,0,1,.373,0"/><path class="cls-2" d="M17.666,7.587a2.209,2.209,0,0,1,.552.07l7.9,2.038,0.253,0.065L26.513,10l2.346,3.976L29,14.212l-0.065.253L27.766,19H29a2,2,0,0,1,2,2v8a2,2,0,0,1-2,2H11a2,2,0,0,1-2-2V21a2,2,0,0,1,2-2h1.933l2.5-9.7a2.32,2.32,0,0,1,2.231-1.712m0-1h0a3.337,3.337,0,0,0-3.2,2.462L12.158,18H11a3,3,0,0,0-3,3v8a3,3,0,0,0,3,3H29a3,3,0,0,0,3-3V21a3,3,0,0,0-2.944-3L29.9,14.715l0.065-.253,0.1-.4-0.21-.357-0.141-.239L27.375,9.49l-0.141-.239-0.211-.357-0.4-.1-0.253-.065-7.9-2.038a3.213,3.213,0,0,0-.8-0.1h0Z"/><path class="cls-10" d="M20.187,21.257l1.089,2.207a0.209,0.209,0,0,0,.157.114l2.435,0.354a0.208,0.208,0,0,1,.115.355l-1.763,1.718a0.209,0.209,0,0,0-.06.185l0.416,2.425a0.208,0.208,0,0,1-.3.22L20.1,27.69a0.207,0.207,0,0,0-.194,0l-2.179,1.145a0.208,0.208,0,0,1-.3-0.22l0.416-2.425a0.209,0.209,0,0,0-.06-0.185l-1.763-1.718a0.208,0.208,0,0,1,.116-0.355l2.436-.354a0.209,0.209,0,0,0,.157-0.114l1.089-2.207a0.208,0.208,0,0,1,.373,0"/></svg>