<svg id="Layer_1" data-name="Layer 1" xmlns="http://www.w3.org/2000/svg" viewBox="0 0 32 32"><defs><style>.cls-1{fill:#b36601;}.cls-2{fill:#fff;}.cls-3{fill:#e3992e;}.cls-4{fill:#dd8100;}.cls-5{fill:#275899;}.cls-6{fill:#004a70;}</style></defs><title>folders</title><path class="cls-1" d="M0.5,18.5V2.177A1.674,1.674,0,0,1,2.167.5H8.309A1.777,1.777,0,0,1,9.4.891L12.253,3.3a0.709,0.709,0,0,0,.414.2h8.166A1.669,1.669,0,0,1,22.5,5.167V18.5H0.5Z"/><path class="cls-2" d="M8.309,1a1.274,1.274,0,0,1,.785.283l2.837,2.395A1.187,1.187,0,0,0,12.667,4h8.167A1.167,1.167,0,0,1,22,5.167V18H1V2.176A1.175,1.175,0,0,1,2.167,1H8.309m0-1H2.167A2.174,2.174,0,0,0,0,2.176V19H23V5.167A2.169,2.169,0,0,0,20.833,3H12.7a1.191,1.191,0,0,1-.15-0.106L9.739,0.519A2.3,2.3,0,0,0,8.309,0h0Z"/><path class="cls-3" d="M2,17H21V7a1,1,0,0,0-1-1H3A1,1,0,0,0,2,7V17Z"/><polygon class="cls-4" points="2 17 21 17 21 7 2 17"/><path class="cls-5" d="M18.492,31C16.843,31,15,30.125,15,28.477V13.286a3.259,3.259,0,0,1,1.126-2.115l3.953-4.062A3.53,3.53,0,0,1,22.319,6h2.332a3.235,3.235,0,0,1,2.114,1.109l3.82,4.171A2.408,2.408,0,0,1,31,13.286V28.476A2.256,2.256,0,0,1,28.479,31H18.492ZM23.483,9.4a1.234,1.234,0,0,0-.689.207,1.255,1.255,0,0,0,0,2.094,1.254,1.254,0,0,0,1.382-.007,1.253,1.253,0,0,0,0-2.085A1.234,1.234,0,0,0,23.483,9.4Z"/><path class="cls-2" d="M22,7h2.651a2.475,2.475,0,0,1,1.761.713l4.069,4.046A1.819,1.819,0,0,1,31,13.286v15.19A2.545,2.545,0,0,1,28.48,31H18V30.983a2.381,2.381,0,0,1-2-2.507V13.286a2.491,2.491,0,0,1,.73-1.762l3.828-3.811A2.476,2.476,0,0,1,22.319,7m1.166,5.4a1.73,1.73,0,0,0,.979-0.3,1.754,1.754,0,0,0,0-2.91,1.755,1.755,0,0,0-1.945,0,1.754,1.754,0,0,0,.006,2.922,1.732,1.732,0,0,0,.966.289M22.319,6h0A3.453,3.453,0,0,0,19.85,7.006l-3.828,3.82A3.449,3.449,0,0,0,15,13.286v15.19A3.523,3.523,0,0,0,18.492,32H28.48A3.549,3.549,0,0,0,32,28.476V13.286a2.824,2.824,0,0,0-.811-2.242L27.127,7.006A3.47,3.47,0,0,0,24.651,6H22.319Zm1.166,5.4a0.736,0.736,0,0,1-.407-0.119,0.755,0.755,0,0,1,0-1.265,0.756,0.756,0,0,1,.82,0,0.754,0.754,0,0,1,0,1.26,0.733,0.733,0,0,1-.412.123h0Z"/><path class="cls-6" d="M24.3,16.858c1.5,0.245,2.29.769,2.29,1.521a1.149,1.149,0,0,1-1.161,1.177,2.6,2.6,0,0,1-1.047-.245,2.737,2.737,0,0,0-.866-0.164,1.1,1.1,0,0,0-1.227.916c0,0.425.278,0.654,1,.85a11.608,11.608,0,0,1,2.6.966,2.8,2.8,0,0,1,1.423,2.584,3.467,3.467,0,0,1-.818,2.323A3.7,3.7,0,0,1,24.3,27.981v0.867a1.29,1.29,0,0,1-.1.654,0.818,0.818,0,0,1-.687.393,0.778,0.778,0,0,1-.687-0.393,1.11,1.11,0,0,1-.115-0.654V28.062C20.8,27.9,19.657,27.245,19.657,26.3a1.16,1.16,0,0,1,1.112-1.177,3.792,3.792,0,0,1,1.374.376,4.585,4.585,0,0,0,1.26.229,1.183,1.183,0,0,0,1.325-1.1c0-.654-0.376-0.9-2.028-1.341a4.374,4.374,0,0,1-2.176-.982,2.794,2.794,0,0,1-.851-2.06,3.348,3.348,0,0,1,1.014-2.372,3.669,3.669,0,0,1,2.029-1V16.106a1.2,1.2,0,0,1,.115-0.671,0.771,0.771,0,0,1,.671-0.393,0.825,0.825,0,0,1,.7.393,1.364,1.364,0,0,1,.1.671v0.753Z"/><path class="cls-2" d="M24.3,15.922c1.5,0.245,2.29.769,2.29,1.521a1.149,1.149,0,0,1-1.161,1.177,2.6,2.6,0,0,1-1.047-.245,2.737,2.737,0,0,0-.866-0.164,1.1,1.1,0,0,0-1.227.916c0,0.425.278,0.654,1,.85a11.608,11.608,0,0,1,2.6.966,2.8,2.8,0,0,1,1.423,2.584,3.467,3.467,0,0,1-.818,2.323A3.7,3.7,0,0,1,24.3,27.044v0.867a1.29,1.29,0,0,1-.1.654,0.818,0.818,0,0,1-.687.393,0.778,0.778,0,0,1-.687-0.393,1.11,1.11,0,0,1-.115-0.654V27.126c-1.914-.164-3.059-0.818-3.059-1.766a1.16,1.16,0,0,1,1.112-1.177,3.792,3.792,0,0,1,1.374.376,4.585,4.585,0,0,0,1.26.229,1.183,1.183,0,0,0,1.325-1.1c0-.654-0.376-0.9-2.028-1.341a4.374,4.374,0,0,1-2.176-.982,2.794,2.794,0,0,1-.851-2.06,3.348,3.348,0,0,1,1.014-2.372,3.669,3.669,0,0,1,2.029-1V15.169a1.2,1.2,0,0,1,.115-0.671A0.771,0.771,0,0,1,23.5,14.1a0.825,0.825,0,0,1,.7.393,1.364,1.364,0,0,1,.1.671v0.753Z"/></svg>