<svg id="Layer_1" data-name="Layer 1" xmlns="http://www.w3.org/2000/svg" viewBox="0 0 32 32"><defs><style>.cls-1{fill:#b36601;}.cls-2{fill:#fff;}.cls-3{fill:#e3992e;}.cls-4{fill:#dd8100;}.cls-5{fill:#df3b14;}.cls-6{fill:#ad1515;}.cls-7{fill:none;stroke:#fff;stroke-linecap:round;stroke-miterlimit:10;stroke-width:2px;}</style></defs><title>folders</title><path class="cls-1" d="M0.5,18.5V2.176A1.673,1.673,0,0,1,2.167.5H8.309A1.778,1.778,0,0,1,9.4.891L12.253,3.3a0.705,0.705,0,0,0,.413.2h8.167A1.669,1.669,0,0,1,22.5,5.167V18.5H0.5Z"/><path class="cls-2" d="M8.309,1a1.274,1.274,0,0,1,.785.283l2.837,2.395A1.187,1.187,0,0,0,12.667,4h8.167A1.167,1.167,0,0,1,22,5.167V18H1V2.176A1.175,1.175,0,0,1,2.167,1H8.309m0-1H2.167A2.174,2.174,0,0,0,0,2.176V19H23V5.167A2.169,2.169,0,0,0,20.833,3H12.7a1.194,1.194,0,0,1-.15-0.106L9.739,0.519A2.3,2.3,0,0,0,8.309,0h0Z"/><path class="cls-3" d="M2,17H21V7a1,1,0,0,0-1-1H3A1,1,0,0,0,2,7V17Z"/><polygon class="cls-4" points="2 17 21 17 21 7 2 17"/><circle class="cls-2" cx="20" cy="20" r="12"/><path class="cls-5" d="M20,30.25A10.25,10.25,0,1,1,30.25,20,10.262,10.262,0,0,1,20,30.25Z"/><path class="cls-6" d="M20,10.5A9.5,9.5,0,1,1,10.5,20,9.511,9.511,0,0,1,20,10.5M20,9A11,11,0,1,0,31,20,11.013,11.013,0,0,0,20,9h0Z"/><line class="cls-7" x1="15.757" y1="24.243" x2="24.243" y2="15.757"/></svg>