<svg id="Layer_1" data-name="Layer 1" xmlns="http://www.w3.org/2000/svg" viewBox="0 0 32 32"><defs><style>.cls-1{fill:#b36601;}.cls-2{fill:#fff;}.cls-3{fill:#e3992e;}.cls-4{fill:#dd8100;}.cls-5{fill:#004a70;}.cls-6{fill:#f05822;}</style></defs><title>folders</title><path class="cls-1" d="M0.5,18.5V2.176A1.674,1.674,0,0,1,2.167.5H8.309A1.777,1.777,0,0,1,9.4.891L12.253,3.3a0.706,0.706,0,0,0,.414.2h8.166A1.669,1.669,0,0,1,22.5,5.167V18.5H0.5Z"/><path class="cls-2" d="M8.309,1a1.274,1.274,0,0,1,.785.283l2.837,2.395A1.187,1.187,0,0,0,12.667,4h8.167A1.167,1.167,0,0,1,22,5.167V18H1V2.176A1.175,1.175,0,0,1,2.167,1H8.309m0-1H2.167A2.174,2.174,0,0,0,0,2.176V19H23V5.167A2.169,2.169,0,0,0,20.833,3H12.7a1.194,1.194,0,0,1-.15-0.106L9.739,0.519A2.3,2.3,0,0,0,8.309,0h0Z"/><path class="cls-3" d="M2,17H21V7a1,1,0,0,0-1-1H3A1,1,0,0,0,2,7V17Z"/><polygon class="cls-4" points="2 17 21 17 21 7 2 17"/><path class="cls-5" d="M26.154,31a0.5,0.5,0,0,1-.444-0.271l-2.969-5.751a0.5,0.5,0,0,1,.194-0.663A2.041,2.041,0,0,0,23.6,23.4a0.564,0.564,0,0,1,.313-0.288,0.674,0.674,0,0,1,.2-0.033,0.414,0.414,0,0,1,.207.05,2.345,2.345,0,0,0,1,.361,0.849,0.849,0,0,0,.11-0.007,0.74,0.74,0,0,0,.278-0.092,1.386,1.386,0,0,0,.482-1.277,0.5,0.5,0,0,1,.393-0.465,0.533,0.533,0,0,1,.106-0.011,0.5,0.5,0,0,1,.444.271l3.346,6.489a0.5,0.5,0,0,1-.444.729,0.508,0.508,0,0,1-.169-0.029l-2.541-.91-0.7,2.454A0.5,0.5,0,0,1,26.2,31Z"/><path class="cls-2" d="M26.7,22.133l3.345,6.489L27,27.532,26.154,30.5l-2.969-5.752a2.419,2.419,0,0,0,.865-1.138l0.023-.05,0.064,0.033a2.608,2.608,0,0,0,1.189.393,1.363,1.363,0,0,0,.173-0.011,1.243,1.243,0,0,0,.464-0.155,1.844,1.844,0,0,0,.733-1.687m0-1a1,1,0,0,0-1,.952,1.073,1.073,0,0,1-.23.867,0.249,0.249,0,0,1-.094.031H25.366a1.854,1.854,0,0,1-.763-0.275,1.13,1.13,0,0,0-.517-0.126,0.942,0.942,0,0,0-.3.046,1.035,1.035,0,0,0-.619.5l-0.032.069a1.754,1.754,0,0,1-.452.683,1,1,0,0,0-.39,1.325l2.969,5.752a1,1,0,0,0,.888.541q0.05,0,.1-0.005a1,1,0,0,0,.862-0.722l0.551-1.939L29.7,29.564a1,1,0,0,0,1.226-1.4l-3.345-6.489a1,1,0,0,0-.889-0.542h0Z"/><path class="cls-5" d="M17.8,31a0.5,0.5,0,0,1-.432-0.361l-0.7-2.454-2.541.91a0.508,0.508,0,0,1-.169.029,0.5,0.5,0,0,1-.444-0.729L16.859,21.9a0.5,0.5,0,0,1,.444-0.271,0.533,0.533,0,0,1,.106.011,0.5,0.5,0,0,1,.393.465,1.385,1.385,0,0,0,.481,1.276,0.735,0.735,0,0,0,.279.093,0.849,0.849,0,0,0,.11.007,2.216,2.216,0,0,0,.956-0.335,0.633,0.633,0,0,1,.284-0.069,0.426,0.426,0,0,1,.131.019,0.537,0.537,0,0,1,.325.231,2.18,2.18,0,0,0,.694.984,0.5,0.5,0,0,1,.194.663L18.29,30.729a0.5,0.5,0,0,1-.444.271Z"/><path class="cls-2" d="M17.3,22.133a1.844,1.844,0,0,0,.733,1.687,1.243,1.243,0,0,0,.464.155,1.363,1.363,0,0,0,.173.011,2.608,2.608,0,0,0,1.189-.393l0.064-.033,0.023,0.05a2.419,2.419,0,0,0,.865,1.138L17.846,30.5,17,27.532l-3.044,1.09L17.3,22.133m0-1a1,1,0,0,0-.889.542l-3.345,6.489a1,1,0,0,0,1.226,1.4l2.037-.729,0.551,1.939a1,1,0,0,0,.862.722c0.033,0,.067.005,0.1,0.005a1,1,0,0,0,.888-0.541L21.7,25.207a1,1,0,0,0-.39-1.325,1.793,1.793,0,0,1-.46-0.7l-0.025-.053a1,1,0,0,0-1.381-.448l-0.051.026a1.953,1.953,0,0,1-.724.278,0.312,0.312,0,0,1-.138-0.033,1.068,1.068,0,0,1-.233-0.868,1,1,0,0,0-1-.952h0Z"/><path class="cls-6" d="M22,24.576a2,2,0,0,1-1.338-.759,1.917,1.917,0,0,0-.56-0.445,0.431,0.431,0,0,0-.112-0.012,2.952,2.952,0,0,0-.632.117,3.583,3.583,0,0,1-.869.147,1.257,1.257,0,0,1-.635-0.157,1.994,1.994,0,0,1-.769-1.312,1.939,1.939,0,0,0-.271-0.683,1.947,1.947,0,0,0-.684-0.271,1.99,1.99,0,0,1-1.311-.767,1.979,1.979,0,0,1-.011-1.505,1.954,1.954,0,0,0,.105-0.743,1.912,1.912,0,0,0-.445-0.56,2.011,2.011,0,0,1-.759-1.338,2.008,2.008,0,0,1,.759-1.339,1.89,1.89,0,0,0,.445-0.56,1.955,1.955,0,0,0-.105-0.743,1.977,1.977,0,0,1,.009-1.5,1.994,1.994,0,0,1,1.312-.768,1.941,1.941,0,0,0,.683-0.271,1.925,1.925,0,0,0,.271-0.684,1.993,1.993,0,0,1,.768-1.31,1.248,1.248,0,0,1,.636-0.158,3.575,3.575,0,0,1,.868.146,2.953,2.953,0,0,0,.633.118A0.439,0.439,0,0,0,20.1,9.2a1.92,1.92,0,0,0,.56-0.445A2.01,2.01,0,0,1,22,8a2.009,2.009,0,0,1,1.339.759,1.911,1.911,0,0,0,.56.446,0.439,0.439,0,0,0,.11.012A2.956,2.956,0,0,0,24.64,9.1a3.606,3.606,0,0,1,.869-0.146,1.248,1.248,0,0,1,.636.158,1.992,1.992,0,0,1,.769,1.311,1.939,1.939,0,0,0,.271.683,1.942,1.942,0,0,0,.683.271,1.989,1.989,0,0,1,1.312.767,1.978,1.978,0,0,1,.011,1.5,1.954,1.954,0,0,0-.105.743,1.919,1.919,0,0,0,.445.56,2.011,2.011,0,0,1,.759,1.338,2.008,2.008,0,0,1-.759,1.339,1.89,1.89,0,0,0-.445.56,1.956,1.956,0,0,0,.105.743,1.976,1.976,0,0,1-.009,1.5,1.992,1.992,0,0,1-1.312.768,1.951,1.951,0,0,0-.683.271,1.932,1.932,0,0,0-.271.684,1.993,1.993,0,0,1-.768,1.31,1.252,1.252,0,0,1-.635.158h0a3.568,3.568,0,0,1-.868-0.147,2.949,2.949,0,0,0-.633-0.117,0.447,0.447,0,0,0-.111.012,1.935,1.935,0,0,0-.561.445A2.007,2.007,0,0,1,22,24.576Z"/><path class="cls-2" d="M22,8.5c0.655,0,1.166,1.026,1.77,1.187a0.928,0.928,0,0,0,.24.029c0.466,0,1.041-.264,1.5-0.264a0.757,0.757,0,0,1,.385.09c0.555,0.321.486,1.465,0.936,1.915s1.594,0.38,1.915.935-0.312,1.5-.145,2.126c0.161,0.6,1.187,1.115,1.187,1.77s-1.026,1.166-1.187,1.77c-0.167.624,0.461,1.579,0.146,2.126s-1.465.486-1.915,0.936-0.38,1.594-.935,1.915a0.756,0.756,0,0,1-.385.09c-0.46,0-1.035-.264-1.5-0.264a0.928,0.928,0,0,0-.24.029c-0.6.161-1.115,1.187-1.77,1.187s-1.166-1.026-1.77-1.187a0.928,0.928,0,0,0-.24-0.029c-0.466,0-1.041.264-1.5,0.264a0.757,0.757,0,0,1-.385-0.09c-0.555-.321-0.486-1.465-0.936-1.915s-1.594-.38-1.915-0.935,0.312-1.5.145-2.126c-0.161-.6-1.187-1.115-1.187-1.77s1.026-1.166,1.187-1.77c0.167-.624-0.461-1.579-0.146-2.126s1.465-.486,1.915-0.936,0.38-1.594.935-1.915a0.756,0.756,0,0,1,.385-0.09c0.46,0,1.035.264,1.5,0.264a0.928,0.928,0,0,0,.24-0.029C20.833,9.526,21.345,8.5,22,8.5m0-1a2.462,2.462,0,0,0-1.688.9,3.757,3.757,0,0,1-.345.313,3.283,3.283,0,0,1-.485-0.1,4.021,4.021,0,0,0-.992-0.162,1.745,1.745,0,0,0-.886.225,2.442,2.442,0,0,0-1,1.609,3.623,3.623,0,0,1-.148.459,3.624,3.624,0,0,1-.459.149,2.444,2.444,0,0,0-1.609,1,2.43,2.43,0,0,0-.062,1.877,3.543,3.543,0,0,1,.1.484,3.708,3.708,0,0,1-.314.346,2.462,2.462,0,0,0-.9,1.689,2.462,2.462,0,0,0,.9,1.688,3.706,3.706,0,0,1,.314.346,3.539,3.539,0,0,1-.1.484,2.428,2.428,0,0,0,.063,1.878,2.442,2.442,0,0,0,1.609,1,3.623,3.623,0,0,1,.459.148,3.627,3.627,0,0,1,.149.459,2.444,2.444,0,0,0,1,1.609,1.745,1.745,0,0,0,.886.225,4.021,4.021,0,0,0,.992-0.162,3.313,3.313,0,0,1,.485-0.1,3.729,3.729,0,0,1,.345.313,2.462,2.462,0,0,0,1.689.9,2.462,2.462,0,0,0,1.688-.9,3.757,3.757,0,0,1,.345-0.313,3.281,3.281,0,0,1,.485.1,4.021,4.021,0,0,0,.992.162A1.745,1.745,0,0,0,26.4,23.9a2.442,2.442,0,0,0,1-1.609,3.619,3.619,0,0,1,.148-0.459A3.623,3.623,0,0,1,28,21.682a2.444,2.444,0,0,0,1.609-1,2.43,2.43,0,0,0,.062-1.877,3.543,3.543,0,0,1-.1-0.484,3.708,3.708,0,0,1,.314-0.346,2.462,2.462,0,0,0,.9-1.689,2.462,2.462,0,0,0-.9-1.688,3.706,3.706,0,0,1-.314-0.346,3.54,3.54,0,0,1,.1-0.484,2.428,2.428,0,0,0-.063-1.878,2.442,2.442,0,0,0-1.61-1,3.624,3.624,0,0,1-.459-0.148,3.624,3.624,0,0,1-.149-0.459,2.444,2.444,0,0,0-1-1.609,1.745,1.745,0,0,0-.886-0.225,4.021,4.021,0,0,0-.992.162,3.313,3.313,0,0,1-.485.1A3.729,3.729,0,0,1,23.688,8.4,2.462,2.462,0,0,0,22,7.5h0Z"/></svg>