<svg id="Layer_1" data-name="Layer 1" xmlns="http://www.w3.org/2000/svg" viewBox="0 0 32 32"><defs><style>.cls-1{fill:#b36601;}.cls-2{fill:#fff;}.cls-3{fill:#e3992e;}.cls-4{fill:#dd8100;}.cls-5{fill:#0072aa;}.cls-6{fill:#004a70;}</style></defs><title>folders</title><path class="cls-1" d="M0.5,18.5V2.176A1.674,1.674,0,0,1,2.167.5H8.309A1.777,1.777,0,0,1,9.4.891L12.253,3.3a0.706,0.706,0,0,0,.414.2h8.166A1.669,1.669,0,0,1,22.5,5.167V18.5H0.5Z"/><path class="cls-2" d="M8.309,1a1.274,1.274,0,0,1,.785.283l2.837,2.395A1.187,1.187,0,0,0,12.667,4h8.167A1.167,1.167,0,0,1,22,5.167V18H1V2.176A1.175,1.175,0,0,1,2.167,1H8.309m0-1H2.167A2.174,2.174,0,0,0,0,2.176V19H23V5.167A2.169,2.169,0,0,0,20.833,3H12.7a1.194,1.194,0,0,1-.15-0.106L9.739,0.519A2.3,2.3,0,0,0,8.309,0h0Z"/><path class="cls-3" d="M2,17H21V7a1,1,0,0,0-1-1H3A1,1,0,0,0,2,7V17Z"/><polygon class="cls-4" points="2 17 21 17 21 7 2 17"/><path class="cls-5" d="M20,30.5A10.5,10.5,0,1,1,30.5,20,10.512,10.512,0,0,1,20,30.5Z"/><path class="cls-6" d="M20,10.5A9.5,9.5,0,1,1,10.5,20,9.511,9.511,0,0,1,20,10.5m0-2A11.5,11.5,0,1,0,31.5,20,11.513,11.513,0,0,0,20,8.5h0Z"/><path class="cls-2" d="M20,9A11,11,0,1,1,9,20,11,11,0,0,1,20,9m0-1A12,12,0,1,0,32,20,12.014,12.014,0,0,0,20,8h0Z"/><path class="cls-2" d="M20.629,18.848c0.786-.524,1.467-1,1.467-1.886a1.767,1.767,0,0,0-2.043-1.624,3.16,3.16,0,0,0-2.724,1.414l-0.89-.943a4.675,4.675,0,0,1,3.771-1.781c2.1,0,3.4,1.2,3.4,2.671s-1,2.148-1.938,2.776c-0.733.524-1.414,0.943-1.414,1.729a1.078,1.078,0,0,0,.471.838l-1.048.471A1.83,1.83,0,0,1,19,21.1C18.952,20,19.843,19.424,20.629,18.848ZM20,24.033a0.943,0.943,0,1,1-.943.943A0.939,0.939,0,0,1,20,24.033Zm0,0a0.943,0.943,0,1,1-.943.943A0.939,0.939,0,0,1,20,24.033Z"/><circle class="cls-2" cx="20" cy="24.976" r="0.943"/></svg>