<svg id="Layer_1" data-name="Layer 1" xmlns="http://www.w3.org/2000/svg" viewBox="0 0 32 32"><defs><style>.cls-1{fill:#b36601;}.cls-2{fill:#fff;}.cls-3{fill:#e3992e;}.cls-4{fill:#dd8100;}.cls-5{fill:#8cc53e;}.cls-6{fill:#333;}.cls-6,.cls-7{stroke:#333;stroke-miterlimit:10;}.cls-7{fill:none;stroke-linecap:round;}</style></defs><title>folders</title><path class="cls-1" d="M0.5,18.5V2.176A1.673,1.673,0,0,1,2.167.5H8.309A1.778,1.778,0,0,1,9.4.891L12.253,3.3a0.705,0.705,0,0,0,.413.2h8.167A1.668,1.668,0,0,1,22.5,5.167V18.5H0.5Z"/><path class="cls-2" d="M8.309,1a1.274,1.274,0,0,1,.785.283l2.837,2.395A1.187,1.187,0,0,0,12.667,4h8.167A1.167,1.167,0,0,1,22,5.167V18H1V2.176A1.175,1.175,0,0,1,2.167,1H8.309m0-1H2.167A2.174,2.174,0,0,0,0,2.176V19H23V5.167A2.169,2.169,0,0,0,20.833,3H12.7a1.193,1.193,0,0,1-.15-0.106L9.739,0.519A2.3,2.3,0,0,0,8.309,0h0Z"/><path class="cls-3" d="M2,17H21V7a1,1,0,0,0-1-1H3A1,1,0,0,0,2,7V17Z"/><polygon class="cls-4" points="2 17 21 17 21 7 2 17"/><path class="cls-5" d="M20,31.5A11.5,11.5,0,1,1,31.5,20,11.513,11.513,0,0,1,20,31.5Z"/><path class="cls-2" d="M20,9A11,11,0,1,1,9,20,11.012,11.012,0,0,1,20,9m0-1A12,12,0,1,0,32,20,12,12,0,0,0,20,8h0Z"/><circle class="cls-6" cx="16.25" cy="16.25" r="1.5"/><circle class="cls-6" cx="23.75" cy="16.25" r="1.5"/><path class="cls-7" d="M24.5,22c0,2.071-2.015,3.5-4.5,3.5s-4.5-1.429-4.5-3.5"/></svg>