<svg id="Layer_1" data-name="Layer 1" xmlns="http://www.w3.org/2000/svg" viewBox="0 0 32 32"><defs><style>.cls-1{fill:#b36601;}.cls-2{fill:#fff;}.cls-3{fill:#e3992e;}.cls-4{fill:#dd8100;}.cls-5,.cls-6{fill:#46616d;}.cls-6{stroke:#fff;stroke-linejoin:round;}</style></defs><title>folders</title><path class="cls-1" d="M0.5,18.5V2.177A1.674,1.674,0,0,1,2.167.5H8.309A1.777,1.777,0,0,1,9.4.891L12.253,3.3a0.709,0.709,0,0,0,.414.2h8.166A1.669,1.669,0,0,1,22.5,5.167V18.5H0.5Z"/><path class="cls-2" d="M8.309,1a1.274,1.274,0,0,1,.785.283l2.837,2.395A1.187,1.187,0,0,0,12.667,4h8.167A1.167,1.167,0,0,1,22,5.167V18H1V2.176A1.175,1.175,0,0,1,2.167,1H8.309m0-1H2.167A2.174,2.174,0,0,0,0,2.176V19H23V5.167A2.169,2.169,0,0,0,20.833,3H12.7a1.191,1.191,0,0,1-.15-0.106L9.739,0.519A2.3,2.3,0,0,0,8.309,0h0Z"/><path class="cls-3" d="M2,17H21V7a1,1,0,0,0-1-1H3A1,1,0,0,0,2,7V17Z"/><polygon class="cls-4" points="2 17 21 17 21 7 2 17"/><rect class="cls-5" x="7.5" y="11.5" width="24" height="20" rx="3.5" ry="3.5"/><path class="cls-2" d="M28,12a3.009,3.009,0,0,1,3,3V28a3.009,3.009,0,0,1-3,3H11a3.009,3.009,0,0,1-3-3V15a3.009,3.009,0,0,1,3-3H28m0-1H11a4,4,0,0,0-4,4V28a4,4,0,0,0,4,4H28a4,4,0,0,0,4-4V15a4,4,0,0,0-4-4h0Z"/><polyline class="cls-6" points="30.5 12.5 19.5 22 8.5 12.5"/><polyline class="cls-6" points="30.5 12.5 19.5 22 8.5 12.5"/></svg>