<svg id="Layer_1" data-name="Layer 1" xmlns="http://www.w3.org/2000/svg" viewBox="0 0 32 32"><defs><style>.cls-1{fill:#b36601;}.cls-2{fill:#fff;}.cls-3{fill:#e3992e;}.cls-4{fill:#dd8100;}.cls-5{fill:#cd3632;}.cls-6{fill:#ff9f00;}</style></defs><title>folders</title><path class="cls-1" d="M0.5,18.5V2.177A1.674,1.674,0,0,1,2.167.5H8.309A1.777,1.777,0,0,1,9.4.891L12.253,3.3a0.709,0.709,0,0,0,.414.2h8.166A1.669,1.669,0,0,1,22.5,5.167V18.5H0.5Z"/><path class="cls-2" d="M8.309,1a1.274,1.274,0,0,1,.785.283l2.837,2.395A1.187,1.187,0,0,0,12.667,4h8.167A1.167,1.167,0,0,1,22,5.167V18H1V2.176A1.175,1.175,0,0,1,2.167,1H8.309m0-1H2.167A2.174,2.174,0,0,0,0,2.176V19H23V5.167A2.169,2.169,0,0,0,20.833,3H12.7a1.191,1.191,0,0,1-.15-0.106L9.739,0.519A2.3,2.3,0,0,0,8.309,0h0Z"/><path class="cls-3" d="M2,17H21V7a1,1,0,0,0-1-1H3A1,1,0,0,0,2,7V17Z"/><polygon class="cls-4" points="2 17 21 17 21 7 2 17"/><path class="cls-5" d="M18.5,9.75V8.5H18.469a1.846,1.846,0,0,1-1.844-1.844V6.344A1.846,1.846,0,0,1,18.469,4.5h3.188A1.846,1.846,0,0,1,23.5,6.344V6.656A1.846,1.846,0,0,1,21.656,8.5H21.5V9.75h-3Z"/><path class="cls-2" d="M21.656,5A1.348,1.348,0,0,1,23,6.344V6.656A1.348,1.348,0,0,1,21.656,8H21V9.25H19V8H18.469a1.348,1.348,0,0,1-1.344-1.344V6.344A1.348,1.348,0,0,1,18.469,5h3.188m0-1H18.469a2.346,2.346,0,0,0-2.344,2.344V6.656A2.348,2.348,0,0,0,18,8.953v1.3h4V8.975a2.347,2.347,0,0,0,2-2.319V6.344A2.346,2.346,0,0,0,21.656,4h0Z"/><path class="cls-2" d="M20,9A11,11,0,1,1,9,20,11,11,0,0,1,20,9m0-1A12,12,0,1,0,32,20,12.014,12.014,0,0,0,20,8h0Z"/><path class="cls-6" d="M20,30.25A10.25,10.25,0,1,1,30.25,20,10.261,10.261,0,0,1,20,30.25Z"/><path class="cls-5" d="M20,10.5A9.5,9.5,0,1,1,10.5,20,9.511,9.511,0,0,1,20,10.5M20,9A11,11,0,1,0,31,20,11,11,0,0,0,20,9h0Z"/><path class="cls-5" d="M20,10.5V20H10.5A9.539,9.539,0,0,1,20,10.5Z"/><rect class="cls-5" x="17.125" y="5" width="5.875" height="3" rx="1.344" ry="1.344"/><rect class="cls-5" x="19" y="7.834" width="2" height="1.416"/></svg>