<svg width="80" height="80" viewBox="0 0 80 80" fill="none" xmlns="http://www.w3.org/2000/svg">
<circle cx="40" cy="40" r="39.25" fill="white" fill-opacity="0.4" stroke="white" stroke-width="1.5"/>
<path d="M64 40C64 53.2 53.2 64 40 64C26.8 64 16 53.2 16 40C16 26.8 26.8 16 40 16C53.2 16 64 26.8 64 40Z" fill="#7E929F"/>
<path d="M39.9999 54.2C41.4359 54.2 42.5999 53.0359 42.5999 51.6C42.5999 50.1641 41.4359 49 39.9999 49C38.564 49 37.3999 50.1641 37.3999 51.6C37.3999 53.0359 38.564 54.2 39.9999 54.2Z" fill="white"/>
<path d="M37.6001 42.2V26.6C37.6001 25.2 38.6001 24 40.0001 24C41.4001 24 42.6001 25.2 42.6001 26.6V42.2C42.6001 43.6 41.4001 44.8 40.0001 44.8C38.6001 44.6 37.6001 43.6 37.6001 42.2Z" fill="white"/>
</svg>
