<svg xmlns="http://www.w3.org/2000/svg" viewBox="0 0 24 24"><title>toolbar_calendar</title><g id="Static"><path d="M22.4,3H21V1.4a1.5,1.5,0,1,0-3,0V3H6V1.4A1.55,1.55,0,0,0,4.5-.2,1.55,1.55,0,0,0,3,1.4V3H1.6A1.6,1.6,0,0,0,0,4.6V20.4A1.6,1.6,0,0,0,1.6,22H22.4A1.6,1.6,0,0,0,24,20.4V4.6A1.6,1.6,0,0,0,22.4,3Z" style="fill:#6d6f71"/><rect x="3" y="6" width="3" height="3" style="fill:#fff"/><rect x="8" y="6" width="3" height="3" style="fill:#fff"/><rect x="13" y="6" width="3" height="3" style="fill:#fff"/><rect x="18" y="6" width="3" height="3" style="fill:#fff"/><rect x="3" y="11" width="3" height="3" style="fill:#fff"/><rect x="8" y="11" width="3" height="3" style="fill:#fff"/><rect x="13" y="11" width="3" height="3" style="fill:#fff"/><rect x="18" y="11" width="3" height="3" style="fill:#fff"/><rect x="3" y="16" width="3" height="3" style="fill:#fff"/><rect x="8" y="16" width="3" height="3" style="fill:#fff"/><rect x="13" y="16" width="3" height="3" style="fill:#fff"/></g><g id="interaction_-1" data-name="interaction -1"><path d="M22.4,3H21V1.4a1.5,1.5,0,1,0-3,0V3H6V1.4A1.55,1.55,0,0,0,4.5-.2,1.55,1.55,0,0,0,3,1.4V3H1.6A1.6,1.6,0,0,0,0,4.6V20.4A1.6,1.6,0,0,0,1.6,22H22.4A1.6,1.6,0,0,0,24,20.4V4.6A1.6,1.6,0,0,0,22.4,3ZM6,19H3V16H6Zm0-5H3V11H6ZM6,9H3V6H6Zm5,10H8V16h3Zm0-5H8V11h3Zm0-5H8V6h3Zm5,10H13V16h3Zm0-5H13V11h3Zm0-5H13V6h3Zm5,5H18V11h3Zm0-5H18V6h3Z" style="fill:#333"/></g></svg>