<svg width="16" height="16" viewBox="0 0 16 16" fill="none" xmlns="http://www.w3.org/2000/svg">
<path d="M16 10.44V14.12C16 15.16 15.16 16 14.12 16H1.88C0.84 16 0 15.16 0 14.12V10.44C0 9.65 0.65 9 1.44 9H2V2C2 0.9 2.9 0 4 0H12C13.1 0 14 0.9 14 2V9H14.56C15.35 9 16 9.65 16 10.44Z" fill="white"/>
<path d="M15 10.44V14.12C15 14.61 14.61 15 14.12 15H1.88C1.39 15 1 14.61 1 14.12V10.44C1 10.2 1.2 10 1.44 10H4.22C4.37 10 4.51 10.08 4.59 10.21C5.08 11.05 5.87 11.7 6.81 12C7.19 12.13 7.58 12.19 8 12.19C8.42 12.19 8.81 12.13 9.19 12C10.13 11.7 10.92 11.05 11.41 10.21C11.49 10.08 11.63 10 11.78 10H14.56C14.8 10 15 10.2 15 10.44Z" fill="#98A8B2"/>
<path d="M13 2V3.27C12.71 3.1 12.36 3 12 3H4C3.64 3 3.29 3.1 3 3.27V2C3 1.45 3.45 1 4 1H12C12.55 1 13 1.45 13 2Z" fill="#98A8B2"/>
<path d="M13 5V9H11.78C11.27 9 10.8 9.27 10.54 9.71C10.02 10.62 9.05 11.19 8 11.19C6.95 11.19 5.98 10.62 5.46 9.71C5.2 9.27 4.73 9 4.22 9H3V5C3 4.45 3.45 4 4 4H12C12.55 4 13 4.45 13 5Z" fill="#98A8B2"/>
</svg>
