<svg width="16" height="16" viewBox="0 0 16 16" fill="none" xmlns="http://www.w3.org/2000/svg">
<path d="M12 16H4C2.34 16 1 14.66 1 13V3C1 1.34 2.34 0 4 0H12C13.66 0 15 1.34 15 3V13C15 14.66 13.66 16 12 16Z" fill="white"/>
<path d="M12 1H4C2.9 1 2 1.9 2 3V5H14V3C14 1.9 13.1 1 12 1ZM8.5 4H7.5C7.22 4 7 3.78 7 3.5C7 3.22 7.22 3 7.5 3H8.5C8.78 3 9 3.22 9 3.5C9 3.78 8.78 4 8.5 4Z" fill="#98A8B2"/>
<path d="M2 6V10H14V6H2ZM8.5 8.5H7.5C7.22 8.5 7 8.28 7 8C7 7.72 7.22 7.5 7.5 7.5H8.5C8.78 7.5 9 7.72 9 8C9 8.28 8.78 8.5 8.5 8.5Z" fill="#98A8B2"/>
<path d="M2 11V13C2 14.1 2.9 15 4 15H12C13.1 15 14 14.1 14 13V11H2ZM8.5 13H7.5C7.22 13 7 12.78 7 12.5C7 12.22 7.22 12 7.5 12H8.5C8.78 12 9 12.22 9 12.5C9 12.78 8.78 13 8.5 13Z" fill="#98A8B2"/>
</svg>
